<svg width="36" height="36" viewBox="0 0 36 36" fill="none" xmlns="http://www.w3.org/2000/svg">
<path d="M34.0002 31V28.1111C33.9992 26.8309 33.5701 25.5873 32.7803 24.5755C31.9905 23.5638 30.8847 22.8411 29.6365 22.5211M23.8184 5.18774C25.0699 5.50596 26.1791 6.22876 26.9713 7.24219C27.7634 8.25563 28.1934 9.50205 28.1934 10.785C28.1934 12.0679 27.7634 13.3143 26.9713 14.3277C26.1791 15.3412 25.0699 16.064 23.8184 16.3822" stroke="#1C2ECC" stroke-width="2" stroke-linecap="round" stroke-linejoin="round"/>
<path d="M25.2727 31V28.1111C25.2727 26.5787 24.6597 25.1091 23.5686 24.0256C22.4775 22.9421 20.9976 22.3333 19.4545 22.3333H7.81818C6.2751 22.3333 4.79523 22.9421 3.70411 24.0256C2.61299 25.1091 2 26.5787 2 28.1111V31M19.4545 10.7778C19.4545 13.9688 16.8497 16.5556 13.6364 16.5556C10.4231 16.5556 7.81818 13.9688 7.81818 10.7778C7.81818 7.5868 10.4231 5 13.6364 5C16.8497 5 19.4545 7.5868 19.4545 10.7778Z" stroke="#FF5252" stroke-width="2" stroke-linecap="round" stroke-linejoin="round"/>
</svg>
