<svg width="176" height="76" viewBox="0 0 176 76" fill="none" xmlns="http://www.w3.org/2000/svg">
<path fill-rule="evenodd" clip-rule="evenodd" d="M99.6598 33.5964C92.4375 -0.804657 56.3625 -3.81695 26.3789 2.86839C44.4754 18.4364 61.2398 26.0561 75.065 16.1856C63.4453 18.7893 51.95 20.5761 42.8039 6.82981C61.9023 -2.49026 99.3911 11.7492 98.11 38.0652L96.3013 37.2492L97.9298 39.5445C97.7035 40.6437 97.2825 41.5454 96.7061 42.2489C96.655 42.247 96.6029 42.2462 96.5482 42.2462C95.6691 41.6131 95.809 40.0044 96.2033 38.1508C95.2125 40.0414 94.6642 41.8623 95.0301 43.5509C89.6104 46.0707 87.081 40.625 86.2587 37.784C85.9552 39.2399 86.9841 42.4517 86.9841 42.4517C83.4962 40.5625 79.6445 37.0022 76.1417 31.6469C77.7211 37.2607 82.3102 41.5544 87.052 43.5877C90.966 45.0008 92.6444 44.6466 93.4719 44.6295C97.9298 44.5335 101.067 40.2958 99.6598 33.5964ZM90.2193 28.5772C88.9493 31.4098 89.5392 33.7597 91.4066 35.7746C90.1785 33.5089 89.8824 31.5209 90.5146 29.8059C91.5937 29.7107 92.3862 29.9506 92.9389 30.4837C92.6558 30.4543 92.3754 30.495 92.1249 30.5948C92.461 30.729 92.6668 31.0023 92.6133 31.2622C92.5454 31.5709 92.1365 31.7467 91.6961 31.6548C91.5187 31.6175 91.3617 31.542 91.2428 31.4438C91.2036 31.5371 91.1729 31.6329 91.15 31.736C90.9654 32.6012 91.5441 33.4573 92.4447 33.6455C93.0134 33.7644 93.5757 33.5898 93.9545 33.2233C94.0312 34.1589 93.9819 35.2678 93.8378 36.5349C96.2458 31.4125 95.5215 28.4312 90.2193 28.5772Z" fill="#3482BD"/>
<path fill-rule="evenodd" clip-rule="evenodd" d="M69.7137 24.301C59.042 18.0207 45.0278 17.5896 33.5049 23.0942C28.4858 8.40097 9.10927 19.8042 18.9694 29.8336C15.1821 32.2958 11.4635 36.4589 9.39844 46.6655C14.8154 32.7548 21.4486 30.3009 22.5485 30.7786C17.073 20.6524 29.0802 17.1684 32.7494 26.1867C44.9475 19.3224 59.324 18.7028 69.8083 25.0435L69.7137 24.301Z" fill="#3482BD"/>
<path d="M1.93175 53.5057C4.16039 53.7631 4.23462 53.8012 4.23462 56.054V61.4821C4.23462 63.9958 4.16039 66.804 3.93717 69.7943C3.82514 71.2 3.60275 72.0117 3.34283 72.3434C3.08291 72.6765 1.93175 72.7136 1.00326 72.7136C0.334696 72.7136 0 73.0826 0 73.823C0 75.0404 0.965737 76 1.52338 76C1.82 76 2.15525 75.89 2.37682 75.7434C4.38306 74.5243 7.46652 71.9362 8.95183 68.5395C9.76857 66.6187 10.0671 65.0292 10.0671 61.8553V50.9204C7.20688 51.4365 4.30912 51.9546 1.93175 52.2484V53.5057Z" fill="#3482BD"/>
<path d="M22.4369 66.5812C20.5416 66.5812 19.5759 62.4442 19.5759 58.0121C19.5759 54.5389 20.5416 52.693 21.6933 52.693C23.2548 52.693 24.4432 55.0572 24.4432 61.6687C24.4432 65.6211 23.4016 66.5812 22.4369 66.5812ZM22.2131 50.9202C17.6447 50.9202 13.0762 54.0592 13.0762 60.0053C13.0762 64.2157 16.1235 68.3535 21.9529 68.3535C26.5228 68.3535 30.9434 65.3623 30.9434 59.4522C30.9434 54.7608 27.7109 50.9202 22.2131 50.9202Z" fill="#61BA52"/>
<path d="M42.4578 66.5812C40.5614 66.5812 39.5965 62.4442 39.5965 58.0121C39.5965 54.5389 40.5614 52.693 41.7139 52.693C43.2748 52.693 44.4635 55.0572 44.4635 61.6687C44.4635 65.6211 43.4225 66.5812 42.4578 66.5812ZM42.2341 50.9202C37.6645 50.9202 33.0957 54.0592 33.0957 60.0053C33.0957 64.2157 36.143 68.3535 41.975 68.3535C46.5434 68.3535 50.9629 65.3623 50.9629 59.4522C50.9629 54.7608 47.7313 50.9202 42.2341 50.9202Z" fill="#61BA52"/>
<path d="M61.8459 66.4728C61.1412 66.4728 60.5454 66.1007 60.211 65.1766C60.099 64.8457 59.9872 64.2157 59.9872 63.6265V53.8732C60.2866 53.7269 60.6566 53.6515 61.0283 53.6515C62.6626 53.6515 64.9293 54.7608 64.9293 60.3752C64.9293 64.2925 63.6286 66.4728 61.8459 66.4728ZM63.4791 50.9202C62.5517 50.9202 61.9195 51.2903 61.251 51.6212L59.9872 52.2123V41.906C56.8318 42.423 53.8973 42.9397 51.8535 43.2001V44.5287C54.0835 44.6777 54.1578 44.7131 54.1578 46.8934V66.9151C56.4973 67.9128 58.6145 68.3535 60.8787 68.3535C66.8983 68.3535 71.2444 64.3655 71.2444 58.8608C71.2444 54.5035 68.0495 50.9202 63.4791 50.9202Z" fill="#3482BD"/>
<path d="M80.5651 63.961V41.9063C77.4082 42.4232 74.474 42.9399 72.4316 43.2003V44.5289C74.6595 44.6779 74.7342 44.7133 74.7342 46.8937V63.961C74.7342 66.0656 74.548 66.2467 72.5798 66.4731V67.9131H82.7206V66.4731C80.7519 66.2467 80.5651 66.0656 80.5651 63.961Z" fill="#3482BD"/>
<path d="M91.5987 52.8406C92.5263 52.8406 93.6791 54.6132 93.6791 56.2398C93.6791 56.8644 93.5307 56.9777 92.8991 57.0147L89.5932 57.1256C89.6305 54.0592 90.7811 52.8406 91.5987 52.8406ZM94.199 64.3998C92.1199 64.3998 89.5932 62.4079 89.5187 59.0834C93.0851 58.9341 97.5796 58.5656 98.1359 58.4553C98.9159 58.3049 99.0649 58.2325 99.0649 56.9777C99.0649 53.5055 95.8697 50.9202 92.8991 50.9202C87.8842 50.9202 83.873 55.1318 83.873 60.1925C83.873 64.8094 87.1047 68.3535 92.3423 68.3535C93.6046 68.3535 96.6508 67.5427 98.9921 64.1811L98.2849 62.9976C96.7629 63.921 95.6117 64.3998 94.199 64.3998Z" fill="#3482BD"/>
</svg>
