<svg width="143" height="21" viewBox="0 0 143 21" fill="none" xmlns="http://www.w3.org/2000/svg">
<path d="M4.4923 0.431506H0V20.5685H4.4923V0.431506Z" fill="#282E34"/>
<path d="M16.958 6.84657C14.2626 6.84657 12.8714 8.37123 12.0599 10.3274L11.944 10.2699C12.1179 9.46438 12.2048 8.91781 12.2048 7.27808H7.88643V20.5685H12.2628V14.1534C12.2628 11.6219 13.3931 10.6438 15.0451 10.6438C16.4653 10.6438 17.3058 11.5644 17.3058 13.463V20.5685H21.6532V12.2548C21.6532 8.6589 19.9432 6.84657 16.958 6.84657Z" fill="#282E34"/>
<path d="M31.3114 0C27.2248 0 24.7903 2.0137 24.7903 5.32192C24.7903 7.65205 26.0076 9.49315 28.4421 11.0178L31.5722 13.0027C33.0213 13.8945 33.514 14.4699 33.514 15.2178C33.514 16.2247 32.5866 16.8575 30.9346 16.8575C29.1377 16.8575 27.1958 16.1959 25.341 14.9877L23.3122 18.9863C25.5438 20.2808 28.1233 21 30.7607 21C35.4559 21 38.1223 18.8712 38.1223 15.0164C38.1223 12.5425 37.0209 10.874 34.3256 9.17671L30.9346 7.01918C29.7173 6.27123 29.3985 5.89726 29.3985 5.26438C29.3985 4.48767 30.0071 4.1137 31.3403 4.1137C32.7605 4.1137 34.1517 4.54521 35.7457 5.43699L37.7165 1.55343C35.6877 0.546575 33.4561 0 31.3114 0Z" fill="#282E34"/>
<path d="M47.1039 6.84657C42.7565 6.84657 39.5685 9.66575 39.5685 13.9233C39.5685 18.1808 42.7565 21 47.1039 21C51.4223 21 54.6104 18.1808 54.6104 13.9233C54.6104 9.66575 51.4223 6.84657 47.1039 6.84657ZM47.1039 10.8164C48.8719 10.8164 50.234 12.0247 50.234 13.9233C50.234 15.8219 48.8719 17.0301 47.1039 17.0301C45.336 17.0301 43.9738 15.8219 43.9738 13.9233C43.9738 12.0247 45.336 10.8164 47.1039 10.8164Z" fill="#282E34"/>
<path d="M65.2346 0.143835H64.3361C60.0467 0.143835 57.757 1.95616 57.757 6.24247V6.44384C57.757 6.78904 57.786 7.10548 57.9599 7.42192L57.902 7.47945C57.5542 7.27808 57.1484 7.27808 56.5977 7.27808H55.3805V10.9315H56.5977C57.2643 10.9315 57.5832 10.9315 57.902 10.7301L57.9599 10.7877C57.7571 11.1329 57.757 11.5932 57.757 12.4274V20.5685H62.1334V12.4274C62.1334 11.5932 62.1334 11.1329 61.9305 10.7877L61.9885 10.7301C62.3073 10.9315 62.6261 10.9315 63.2927 10.9315H65.2346V7.27808H63.2927C62.7421 7.27808 62.3363 7.27808 61.9885 7.47945L61.9305 7.42192C62.1044 7.10548 62.1334 6.78904 62.1334 6.44384V6.24247C62.1334 4.60274 62.887 4.08493 64.8868 4.08493H65.2346V0.143835Z" fill="#282E34"/>
<path d="M72.6339 0.172602H72.1992L68.2576 2.81918V6.27123C68.2576 6.64521 68.2576 7.07671 68.4604 7.42192L68.4025 7.47945C68.0547 7.27808 67.6489 7.27808 67.0983 7.27808H65.881V10.9315H67.0983C67.7649 10.9315 68.0837 10.9315 68.4025 10.7301L68.4604 10.7877C68.2576 11.1329 68.2576 11.5644 68.2576 12.4274V20.5685H72.6339V12.4274C72.6339 11.5644 72.6339 11.1329 72.4311 10.7877L72.489 10.7301C72.8078 10.9315 73.1266 10.9315 73.7932 10.9315H75.2714V7.27808H73.7932C73.2426 7.27808 72.8368 7.27808 72.489 7.47945L72.4311 7.42192C72.6339 7.07671 72.6339 6.67397 72.6339 6.27123V0.172602Z" fill="#282E34"/>
<path d="M82.1221 0.910959H78.934V10.9795H80.0499V6.77945C80.0499 6.62123 80.0354 6.50617 80.0064 6.41986L80.0354 6.40548C80.1223 6.43425 80.2093 6.44863 80.3976 6.44863H82.1946C84.0205 6.44863 85.1943 5.38425 85.1943 3.68699C85.1943 1.97534 83.9915 0.910959 82.1221 0.910959ZM80.0354 1.91781C80.1223 1.94658 80.1948 1.96096 80.3976 1.96096H82.1221C83.3249 1.96096 84.006 2.6226 84.006 3.68699C84.006 4.73699 83.3249 5.39863 82.1221 5.39863H80.3976C80.2093 5.39863 80.1223 5.41301 80.0354 5.44178L80.0064 5.4274C80.0354 5.3411 80.0499 5.22603 80.0499 5.05343V2.29178C80.0499 2.13356 80.0354 2.01849 80.0064 1.93219L80.0354 1.91781Z" fill="#282E34"/>
<path d="M84.5436 10.9795H85.7899L87.1086 8.00206H91.4415L92.7457 10.9795H93.9919L89.3257 0.695206H89.2098L84.5436 10.9795ZM87.4129 7.08151V7.06712C87.5288 6.90891 87.6592 6.69315 87.8476 6.23288L88.862 3.84521C89.0939 3.31301 89.2098 2.91027 89.2388 2.65137H89.2968C89.3258 2.91027 89.4562 3.31301 89.6735 3.84521L90.6879 6.23288C90.8908 6.69315 91.0212 6.90891 91.1372 7.06712L91.1227 7.08151C90.9922 7.06712 90.7604 7.05274 90.3112 7.05274H88.2244C87.7897 7.05274 87.5433 7.06712 87.4129 7.08151Z" fill="#282E34"/>
<path d="M98.5967 0.910959H95.3216V10.9795H96.4375V6.60685C96.4375 6.44863 96.423 6.33356 96.394 6.24726L96.423 6.21849C96.4954 6.26164 96.5824 6.26164 96.7852 6.26164H97.3649L101.06 10.9795H102.509L99.2488 6.85137C98.9734 6.52055 98.7416 6.30479 98.4373 6.18973V6.13219C98.5967 6.17534 98.7706 6.20411 98.9445 6.20411C100.307 6.20411 101.567 5.19726 101.567 3.60069C101.567 1.93219 100.423 0.910959 98.5967 0.910959ZM96.423 1.91781C96.5099 1.94658 96.5824 1.96096 96.7852 1.96096H98.6112C99.756 1.96096 100.379 2.60822 100.379 3.5863C100.379 4.60753 99.727 5.19726 98.6112 5.19726H96.7852C96.5969 5.19726 96.5099 5.21164 96.423 5.25479L96.394 5.22603C96.423 5.15411 96.4375 5.02466 96.4375 4.86644V2.29178C96.4375 2.13356 96.423 2.01849 96.394 1.93219L96.423 1.91781Z" fill="#282E34"/>
<path d="M109.42 0.910959H102.247V1.97534H104.928C105.101 1.97534 105.203 1.96096 105.29 1.93219L105.319 1.94658C105.29 2.03288 105.275 2.14795 105.275 2.30616V10.9795H106.391V2.30616C106.391 2.14795 106.377 2.03288 106.348 1.94658L106.377 1.93219C106.464 1.96096 106.565 1.97534 106.739 1.97534H109.42V0.910959Z" fill="#282E34"/>
<path d="M110.82 0.767124H110.704V10.9795H111.82V4.93836C111.82 4.11849 111.777 3.5863 111.69 3.14041L111.748 3.12603C111.878 3.44247 112.212 3.88836 112.545 4.26233L118.718 11.1233H118.849V0.910959H117.733V6.93767C117.733 7.77192 117.762 8.30411 117.849 8.75L117.805 8.76438C117.675 8.44795 117.341 8.00206 117.008 7.62808L110.82 0.767124Z" fill="#282E34"/>
<path d="M126.786 0.910959H121.134V10.9795H126.844V9.92945H122.598C122.424 9.92945 122.323 9.94384 122.236 9.9726L122.207 9.95822C122.236 9.87192 122.25 9.75685 122.25 9.59863V6.31918C122.25 6.16096 122.236 6.03151 122.207 5.95959L122.236 5.93082C122.323 5.97397 122.424 5.97397 122.598 5.97397H126.322V4.93836H122.598C122.424 4.93836 122.323 4.93836 122.236 4.98151L122.207 4.95274C122.236 4.88082 122.25 4.75137 122.25 4.60753V2.29178C122.25 2.13356 122.236 2.01849 122.207 1.93219L122.236 1.91781C122.323 1.94658 122.424 1.96096 122.598 1.96096H126.786V0.910959Z" fill="#282E34"/>
<path d="M131.839 0.910959H128.564V10.9795H129.68V6.60685C129.68 6.44863 129.665 6.33356 129.636 6.24726L129.665 6.21849C129.738 6.26164 129.825 6.26164 130.027 6.26164H130.607L134.302 10.9795H135.752L132.491 6.85137C132.216 6.52055 131.984 6.30479 131.679 6.18973V6.13219C131.839 6.17534 132.013 6.20411 132.187 6.20411C133.549 6.20411 134.81 5.19726 134.81 3.60069C134.81 1.93219 133.665 0.910959 131.839 0.910959ZM129.665 1.91781C129.752 1.94658 129.825 1.96096 130.027 1.96096H131.853C132.998 1.96096 133.621 2.60822 133.621 3.5863C133.621 4.60753 132.969 5.19726 131.853 5.19726H130.027C129.839 5.19726 129.752 5.21164 129.665 5.25479L129.636 5.22603C129.665 5.15411 129.68 5.02466 129.68 4.86644V2.29178C129.68 2.13356 129.665 2.01849 129.636 1.93219L129.665 1.91781Z" fill="#282E34"/>
<path d="M139.492 0.695206C137.768 0.695206 136.754 1.5726 136.754 3.01096C136.754 4.00343 137.246 4.69384 138.261 5.44178L139.913 6.69315C140.84 7.36918 141.217 7.88699 141.217 8.56301C141.217 9.45479 140.521 10.0733 139.261 10.0733C138.29 10.0733 137.348 9.69932 136.594 9.23904L136.058 10.2747C136.898 10.8068 138.058 11.1952 139.261 11.1952C141.159 11.1952 142.405 10.2171 142.405 8.4911C142.405 7.36918 141.883 6.60685 140.695 5.74384L139.029 4.52123C138.246 3.96027 137.956 3.54315 137.956 2.96781C137.956 2.24863 138.478 1.81712 139.478 1.81712C140.159 1.81712 140.855 2.01849 141.55 2.39247L142.072 1.32808C141.289 0.95411 140.42 0.695206 139.492 0.695206Z" fill="#282E34"/>
<path d="M143 13.3767V15.774L78.9968 15.774V13.3767L143 13.3767Z" fill="#282E34"/>
<path d="M143 18.1712V20.5685H78.9968V18.1712L143 18.1712Z" fill="#282E34"/>
</svg>
