<svg width="36" height="36" viewBox="0 0 36 36" fill="none" xmlns="http://www.w3.org/2000/svg">
<path d="M31.5 19C32.5 17.9 33 16.5 33 15C33 11.7 30.3 9 27 9C26.5 9 26 9.1 25.5 9.2C24.9 7.9 23.6 7 22 7C21.6 7 21.1 7.1 20.7 7.2C20 4.8 17.7 3 15 3C11.7 3 9 5.7 9 9C9 9.8 9.2 10.5 9.4 11.2C9 11.1 8.5 11 8 11C5.2 11 3 13.2 3 16C3 17.1 3.4 18.2 4 19" stroke="#FF5252" stroke-width="2" stroke-miterlimit="10" stroke-linecap="round" stroke-linejoin="round"/>
<path d="M3 32C3 32.6 3.4 33 4 33H8C8.6 33 9 32.6 9 32V28C9 27.4 8.6 27 8 27H4C3.4 27 3 27.4 3 28V32Z" stroke="#1C2ECC" stroke-width="2" stroke-miterlimit="10" stroke-linecap="round" stroke-linejoin="round"/>
<path d="M27 32C27 32.6 27.4 33 28 33H32C32.6 33 33 32.6 33 32V28C33 27.4 32.6 27 32 27H28C27.4 27 27 27.4 27 28V32Z" stroke="#1C2ECC" stroke-width="2" stroke-miterlimit="10" stroke-linecap="round" stroke-linejoin="round"/>
<path d="M15 32C15 32.6 15.4 33 16 33H20C20.6 33 21 32.6 21 32V28C21 27.4 20.6 27 20 27H16C15.4 27 15 27.4 15 28V32Z" stroke="#1C2ECC" stroke-width="2" stroke-miterlimit="10" stroke-linecap="round" stroke-linejoin="round"/>
<path d="M6 27V23C6 23 6 22 7 22C8 22 29 22 29 22C29 22 30 22 30 23C30 24 30 27 30 27" stroke="#1C2ECC" stroke-width="2" stroke-miterlimit="10" stroke-linecap="round" stroke-linejoin="round"/>
<path d="M18 15V27" stroke="#1C2ECC" stroke-width="2" stroke-miterlimit="10" stroke-linecap="round" stroke-linejoin="round"/>
</svg>
