<svg width="253" height="37" viewBox="0 0 253 37" fill="none" xmlns="http://www.w3.org/2000/svg">
<path d="M7.94791 0.760273H0V36.2397H7.94791V0.760273Z" fill="white"/>
<path d="M30.0026 12.063C25.2338 12.063 22.7725 14.7493 21.3368 18.1959L21.1317 18.0945C21.4393 16.6753 21.5932 15.7123 21.5932 12.8233H13.9529V36.2397H21.6957V24.937C21.6957 20.4767 23.6955 18.7534 26.6183 18.7534C29.1309 18.7534 30.6179 20.3753 30.6179 23.7205V36.2397H38.3094V21.5918C38.3094 15.2562 35.2841 12.063 30.0026 12.063Z" fill="white"/>
<path d="M55.397 0C48.167 0 43.8597 3.54795 43.8597 9.37671C43.8597 13.4822 46.0134 16.726 50.3206 19.4123L55.8585 22.9096C58.4224 24.4808 59.2941 25.4945 59.2941 26.8123C59.2941 28.5863 57.6532 29.7014 54.7304 29.7014C51.5513 29.7014 48.1157 28.5356 44.834 26.4069L41.2446 33.4521C45.1929 35.7329 49.7566 37 54.4228 37C62.7296 37 67.4471 33.2493 67.4471 26.4575C67.4471 22.0986 65.4986 19.1589 60.7298 16.1685L54.7304 12.3671C52.5768 11.0493 52.0128 10.3904 52.0128 9.27534C52.0128 7.90685 53.0896 7.24795 55.4483 7.24795C57.9609 7.24795 60.4222 8.00822 63.2424 9.57945L66.7292 2.73699C63.1398 0.963013 59.1915 0 55.397 0Z" fill="white"/>
<path d="M83.3377 12.063C75.6462 12.063 70.0057 17.0301 70.0057 24.5315C70.0057 32.0329 75.6462 37 83.3377 37C90.978 37 96.6184 32.0329 96.6184 24.5315C96.6184 17.0301 90.978 12.063 83.3377 12.063ZM83.3377 19.0575C86.4656 19.0575 88.8756 21.1863 88.8756 24.5315C88.8756 27.8767 86.4656 30.0055 83.3377 30.0055C80.2098 30.0055 77.7998 27.8767 77.7998 24.5315C77.7998 21.1863 80.2098 19.0575 83.3377 19.0575Z" fill="white"/>
<path d="M115.415 0.253424H113.825C106.236 0.253424 102.186 3.44658 102.186 10.9986V11.3534C102.186 11.9616 102.237 12.5192 102.545 13.0767L102.442 13.1781C101.827 12.8233 101.109 12.8233 100.134 12.8233H97.9809V19.2603H100.134C101.314 19.2603 101.878 19.2603 102.442 18.9055L102.545 19.0069C102.186 19.6151 102.186 20.426 102.186 21.8959V36.2397H109.928V21.8959C109.928 20.426 109.928 19.6151 109.569 19.0069L109.672 18.9055C110.236 19.2603 110.8 19.2603 111.979 19.2603H115.415V12.8233H111.979C111.005 12.8233 110.287 12.8233 109.672 13.1781L109.569 13.0767C109.877 12.5192 109.928 11.9616 109.928 11.3534V10.9986C109.928 8.10959 111.262 7.19726 114.8 7.19726H115.415V0.253424Z" fill="white"/>
<path d="M128.506 0.304109H127.737L120.763 4.96712V11.0493C120.763 11.7082 120.763 12.4685 121.122 13.0767L121.02 13.1781C120.404 12.8233 119.687 12.8233 118.712 12.8233H116.559V19.2603H118.712C119.892 19.2603 120.456 19.2603 121.02 18.9055L121.122 19.0069C120.763 19.6151 120.763 20.3753 120.763 21.8959V36.2397H128.506V21.8959C128.506 20.3753 128.506 19.6151 128.147 19.0069L128.25 18.9055C128.814 19.2603 129.378 19.2603 130.557 19.2603H133.172V12.8233H130.557C129.583 12.8233 128.865 12.8233 128.25 13.1781L128.147 13.0767C128.506 12.4685 128.506 11.7589 128.506 11.0493V0.304109Z" fill="white"/>
<path d="M145.293 1.60502H139.653V19.3448H141.627V11.9448C141.627 11.666 141.601 11.4632 141.55 11.3112L141.601 11.2858C141.755 11.3365 141.909 11.3619 142.242 11.3619H145.421C148.652 11.3619 150.728 9.48653 150.728 6.49612C150.728 3.48037 148.6 1.60502 145.293 1.60502ZM141.601 3.379C141.755 3.42968 141.883 3.45502 142.242 3.45502H145.293C147.421 3.45502 148.626 4.62078 148.626 6.49612C148.626 8.34612 147.421 9.51187 145.293 9.51187H142.242C141.909 9.51187 141.755 9.53722 141.601 9.5879L141.55 9.56256C141.601 9.4105 141.627 9.20776 141.627 8.90365V4.0379C141.627 3.75913 141.601 3.55639 141.55 3.40434L141.601 3.379Z" fill="white"/>
<path d="M149.577 19.3448H151.782L154.115 14.0989H161.781L164.089 19.3448H166.293L158.038 1.22489H157.833L149.577 19.3448ZM154.654 12.4769V12.4516C154.859 12.1728 155.089 11.7927 155.423 10.9817L157.217 6.77489C157.628 5.83722 157.833 5.12763 157.884 4.67146H157.987C158.038 5.12763 158.269 5.83722 158.653 6.77489L160.448 10.9817C160.807 11.7927 161.038 12.1728 161.243 12.4516L161.217 12.4769C160.986 12.4516 160.576 12.4263 159.781 12.4263H156.089C155.32 12.4263 154.884 12.4516 154.654 12.4769Z" fill="white"/>
<path d="M174.44 1.60502H168.646V19.3448H170.62V11.6406C170.62 11.3619 170.594 11.1591 170.543 11.0071L170.594 10.9564C170.723 11.0324 170.877 11.0324 171.235 11.0324H172.261L178.799 19.3448H181.363L175.594 12.0715C175.107 11.4886 174.697 11.1084 174.158 10.9057V10.8043C174.44 10.8804 174.748 10.9311 175.056 10.9311C177.466 10.9311 179.696 9.15708 179.696 6.34407C179.696 3.40434 177.671 1.60502 174.44 1.60502ZM170.594 3.379C170.748 3.42968 170.877 3.45502 171.235 3.45502H174.466C176.491 3.45502 177.594 4.59544 177.594 6.31872C177.594 8.11804 176.44 9.15708 174.466 9.15708H171.235C170.902 9.15708 170.748 9.18242 170.594 9.25845L170.543 9.20776C170.594 9.08105 170.62 8.85297 170.62 8.5742V4.0379C170.62 3.75913 170.594 3.55639 170.543 3.40434L170.594 3.379Z" fill="white"/>
<path d="M193.589 1.60502H180.898V3.48037H185.641C185.949 3.48037 186.128 3.45502 186.282 3.40434L186.333 3.42968C186.282 3.58174 186.256 3.78448 186.256 4.06324V19.3448H188.231V4.06324C188.231 3.78448 188.205 3.58174 188.154 3.42968L188.205 3.40434C188.359 3.45502 188.538 3.48037 188.846 3.48037H193.589V1.60502Z" fill="white"/>
<path d="M196.067 1.3516H195.862V19.3448H197.836V8.70092C197.836 7.25639 197.759 6.31872 197.605 5.53311L197.708 5.50776C197.938 6.0653 198.528 6.85091 199.118 7.50982L210.04 19.5982H210.271V1.60502H208.296V12.2235C208.296 13.6934 208.348 14.6311 208.502 15.4167L208.425 15.442C208.194 14.8845 207.604 14.0989 207.014 13.44L196.067 1.3516Z" fill="white"/>
<path d="M224.313 1.60502H214.314V19.3448H224.416V17.4948H216.904C216.596 17.4948 216.417 17.5201 216.263 17.5708L216.212 17.5454C216.263 17.3934 216.289 17.1906 216.289 16.9119V11.1338C216.289 10.855 216.263 10.6269 216.212 10.5002L216.263 10.4495C216.417 10.5256 216.596 10.5256 216.904 10.5256H223.493V8.70092H216.904C216.596 8.70092 216.417 8.70092 216.263 8.77694L216.212 8.72626C216.263 8.59954 216.289 8.37146 216.289 8.11804V4.0379C216.289 3.75913 216.263 3.55639 216.212 3.40434L216.263 3.379C216.417 3.42968 216.596 3.45502 216.904 3.45502H224.313V1.60502Z" fill="white"/>
<path d="M233.253 1.60502H227.459V19.3448H229.433V11.6406C229.433 11.3619 229.408 11.1591 229.356 11.0071L229.408 10.9564C229.536 11.0324 229.69 11.0324 230.049 11.0324H231.074L237.612 19.3448H240.176L234.407 12.0715C233.92 11.4886 233.51 11.1084 232.971 10.9057V10.8043C233.253 10.8804 233.561 10.9311 233.869 10.9311C236.279 10.9311 238.509 9.15708 238.509 6.34407C238.509 3.40434 236.484 1.60502 233.253 1.60502ZM229.408 3.379C229.561 3.42968 229.69 3.45502 230.049 3.45502H233.279C235.304 3.45502 236.407 4.59544 236.407 6.31872C236.407 8.11804 235.253 9.15708 233.279 9.15708H230.049C229.715 9.15708 229.561 9.18242 229.408 9.25845L229.356 9.20776C229.408 9.08105 229.433 8.85297 229.433 8.5742V4.0379C229.433 3.75913 229.408 3.55639 229.356 3.40434L229.408 3.379Z" fill="white"/>
<path d="M246.794 1.22489C243.743 1.22489 241.949 2.77078 241.949 5.30502C241.949 7.05365 242.82 8.27009 244.615 9.5879L247.538 11.7927C249.179 12.9838 249.845 13.8961 249.845 15.0872C249.845 16.6584 248.615 17.7482 246.384 17.7482C244.666 17.7482 243 17.0893 241.667 16.2783L240.718 18.103C242.205 19.0406 244.256 19.7249 246.384 19.7249C249.743 19.7249 251.948 18.0016 251.948 14.9605C251.948 12.9838 251.025 11.6406 248.922 10.1201L245.974 7.96598C244.589 6.97763 244.077 6.2427 244.077 5.229C244.077 3.96187 245 3.2016 246.769 3.2016C247.974 3.2016 249.204 3.55639 250.435 4.2153L251.358 2.33996C249.973 1.68105 248.435 1.22489 246.794 1.22489Z" fill="white"/>
<path d="M253 23.5685V27.7922L139.764 27.7922V23.5685L253 23.5685Z" fill="white"/>
<path d="M253 32.016V36.2397H139.764V32.016H253Z" fill="white"/>
</svg>
