<svg width="107" height="16" viewBox="0 0 107 16" fill="none" xmlns="http://www.w3.org/2000/svg">
<path fill-rule="evenodd" clip-rule="evenodd" d="M0.194433 0H5.08338V5.4905H7.77488C8.28731 5.4905 8.71996 5.3439 9.09747 5.05566C9.47166 4.76996 9.72088 4.39435 9.84982 3.90251V3.90251L10.8619 0.0209559H16.085L14.644 5.51146H15.8905V16H10.981V10.5095H8.31009C7.78068 10.5095 7.34195 10.658 6.96692 10.9443C6.59271 11.2301 6.34348 11.6057 6.21454 12.0976V12.0976L5.20252 15.979H0L1.44095 10.4885H0.194433V0ZM1.481 1.30976V9.17878H3.11639L1.67543 14.6693H4.2129L4.9713 11.7605C5.17176 10.9953 5.58122 10.3651 6.19498 9.89653C6.80802 9.42846 7.52206 9.19974 8.31009 9.19974H12.2676V14.6902H14.604V6.82122H12.9686L14.4095 1.33071H11.8515L11.0931 4.23947C10.8926 5.00473 10.4832 5.63485 9.86941 6.10347C9.25883 6.56966 8.55244 6.80026 7.77488 6.80026H3.79682V1.30976H1.481Z" fill="white"/>
<path d="M19.5817 0.0227917H35.2087V4.0114H19.5817V0.0227917ZM25.4307 5.9943H29.3374V15.9772H25.4307V5.9943Z" fill="white"/>
<path d="M37.4367 0.0227917H53.0637V4.0114H37.4367V0.0227917ZM41.3658 10.0057V10.3476C41.3658 10.7882 41.5221 11.1757 41.8346 11.51C42.1472 11.8291 42.5341 11.9886 42.9955 11.9886H53.0637V15.9772H42.7946C42.0504 15.9772 41.3509 15.8329 40.6961 15.5442C40.0561 15.2555 39.4906 14.868 38.9994 14.3818C38.5232 13.8803 38.1437 13.3029 37.8609 12.6496C37.5781 11.981 37.4367 11.2669 37.4367 10.5071V5.9943H51.1215V10.0057H41.3658Z" fill="white"/>
<path d="M70.2653 0V15.9544H66.3362V11.9658H59.8845L58.8352 15.9544H54.616C55.0327 14.4046 55.442 12.8699 55.8438 11.3504C56.2456 9.81576 56.6549 8.27351 57.0716 6.72365C57.3395 5.7208 57.7414 4.80912 58.2771 3.9886C58.8129 3.16809 59.4529 2.46154 60.197 1.86895C60.9561 1.27635 61.7895 0.820513 62.6973 0.501425C63.6201 0.182336 64.5875 0.0227917 65.5995 0.0227917L70.2653 0ZM66.3362 8V3.9886H65.3763C64.8702 3.9886 64.3865 4.07218 63.9252 4.23932C63.4638 4.39126 63.0396 4.61918 62.6527 4.92308C62.2806 5.21178 61.9606 5.56885 61.6928 5.9943C61.4249 6.40456 61.2239 6.8604 61.09 7.36182L60.9337 8H66.3362Z" fill="white"/>
<path d="M72.5151 0.0227917H82.628C83.521 0.0227917 84.3619 0.197531 85.1507 0.547008C85.9395 0.896486 86.6241 1.37512 87.2045 1.98291C87.7998 2.59069 88.2686 3.29725 88.6109 4.10256C88.9532 4.90788 89.1244 5.76638 89.1244 6.67806V15.9772H85.2176V6.88319C85.2176 6.48813 85.1432 6.11586 84.9944 5.76638C84.8604 5.4169 84.667 5.11301 84.414 4.8547C84.161 4.59639 83.8633 4.39126 83.521 4.23932C83.1936 4.08737 82.8364 4.0114 82.4494 4.0114H80.7974C81.3183 6.03229 81.8392 8.03799 82.3601 10.0285C82.8959 12.0038 83.4242 13.9943 83.9451 16H79.7482C79.2124 13.9791 78.6841 11.981 78.1632 10.0057C77.6423 8.0152 77.1214 6.01709 76.6005 4.0114H76.3995V15.9772H72.4928L72.5151 0.0227917Z" fill="white"/>
<path d="M95.2574 16V12.0114H103.093V11.8974C103.093 11.3656 102.907 10.9174 102.535 10.5527C102.178 10.188 101.739 10.0057 101.218 10.0057H91.3507V0.0227917H106.978V4.0114H95.2574V5.9943H101.419C102.193 5.9943 102.915 6.14625 103.584 6.45014C104.269 6.75404 104.864 7.16429 105.37 7.68091C105.876 8.19753 106.271 8.80532 106.554 9.50427C106.851 10.188 107 10.925 107 11.7151V15.9772L95.2574 16Z" fill="white"/>
</svg>
