<svg width="238" height="80" viewBox="0 0 238 80" fill="none" xmlns="http://www.w3.org/2000/svg">
<g clip-path="url(#clip0_2_7299)">
<path d="M0 0V51.396H35.9991V0H0ZM23.6984 41.2536V37.6068H23.5856C21.6671 40 18.056 41.8234 13.3163 41.8234C7.44808 41.8234 2.93409 39.3162 2.93409 31.7949V16.0684H12.4135V28.8319C12.4135 33.0484 14.2191 34.5299 17.3789 34.5299C20.7643 34.5299 23.3599 32.7066 23.3599 28.604V16.0684H32.9521V41.2536H23.6984Z" fill="white"/>
<path d="M73.0142 30.7692C71.5472 37.8347 66.8075 41.8233 56.0868 41.8233C45.2532 41.8233 38.9336 37.6068 38.9336 28.376C38.9336 19.3732 45.5917 14.9287 56.0868 14.9287C65.2276 14.9287 71.7729 17.6638 72.5628 25.527H62.7449C62.2935 22.792 60.2622 21.3105 56.1996 21.3105C51.6856 21.3105 48.9772 23.8176 48.9772 28.262C48.9772 32.7065 51.5728 35.2136 56.1996 35.2136C59.8108 35.2136 62.1806 33.6182 62.8577 30.5412H73.0142V30.7692Z" fill="white"/>
<path d="M92.6492 15.0425C103.709 15.0425 109.802 19.7148 109.802 28.4898C109.802 37.2647 103.709 41.9371 92.6492 41.9371C81.59 41.9371 75.4961 37.2647 75.4961 28.4898C75.4961 19.6009 81.59 15.0425 92.6492 15.0425ZM85.6526 28.4898C85.6526 33.1621 88.361 35.4413 92.7621 35.4413C97.1632 35.4413 99.8716 33.1621 99.8716 28.4898C99.8716 23.8174 97.1632 21.5382 92.7621 21.5382C88.361 21.4242 85.6526 23.8174 85.6526 28.4898Z" fill="white"/>
<path d="M136.096 37.9485C133.952 40.4557 130.566 41.9371 126.729 41.9371C118.04 41.9371 112.397 37.0369 112.397 28.4899C112.397 21.3104 117.701 15.4984 126.617 15.4984C130.905 15.4984 134.177 16.8659 135.757 19.2591H135.87V7.40723H145.462V41.2534H136.096V37.9485ZM128.986 22.222C124.585 22.222 122.215 24.3873 122.215 28.4899C122.215 32.5924 124.585 34.7577 128.986 34.7577C133.5 34.7577 135.87 32.2505 135.87 28.4899C135.87 24.6152 133.5 22.222 128.986 22.222Z" fill="white"/>
<path d="M182.364 33.504C181.236 37.6066 176.496 41.8231 166.114 41.8231C155.055 41.8231 148.961 37.6066 148.961 28.3758C148.961 19.6009 155.732 15.0425 165.888 15.0425C176.383 15.0425 182.929 19.7148 182.929 29.9713V30.769H158.892C159.343 33.9599 161.6 36.353 166.565 36.353C169.612 36.353 171.192 34.9855 172.321 33.618H182.364V33.504ZM172.998 25.6408C172.434 22.9057 170.402 20.5126 165.888 20.5126C161.374 20.5126 159.343 22.7918 158.779 25.6408H172.998Z" fill="white"/>
<path d="M83.2832 56.2964H87.4586V74.644H83.2832V56.2964Z" fill="white"/>
<path d="M95.584 59.829H89.7158V56.4102H105.628V59.829H99.7594V74.7577H95.584V59.829Z" fill="white"/>
<path d="M127.295 66.6667V74.7579H123.458V72.9345C122.668 74.1881 121.201 74.8719 119.17 74.8719C115.897 74.8719 113.979 73.0485 113.979 70.5414C113.979 68.0343 115.671 66.3249 119.96 66.3249H123.232C123.232 64.6155 122.217 63.5898 119.96 63.5898C118.493 63.5898 116.913 64.0456 115.897 64.9573L114.43 62.1083C116.01 60.9687 118.267 60.3989 120.411 60.3989C124.812 60.3989 127.295 62.3362 127.295 66.6667ZM123.232 70.1995V68.718H120.411C118.493 68.718 117.928 69.4018 117.928 70.4274C117.928 71.4531 118.831 72.1368 120.185 72.1368C121.652 72.1368 122.781 71.567 123.232 70.1995Z" fill="white"/>
<path d="M130.115 67.6924C130.115 63.4759 133.388 60.3989 137.902 60.3989C140.836 60.3989 143.206 61.6525 144.221 64.0457L141.062 65.7551C140.272 64.3875 139.143 63.8177 137.902 63.8177C135.871 63.8177 134.291 65.2992 134.291 67.6924C134.291 70.0855 135.871 71.567 137.902 71.567C139.143 71.567 140.272 70.9972 141.062 69.6297L144.221 71.3391C143.206 73.6183 140.949 74.8719 137.902 74.8719C133.388 74.8719 130.115 71.9089 130.115 67.6924Z" fill="white"/>
<path d="M158.892 66.6667V74.7579H155.056V72.9345C154.266 74.1881 152.799 74.8719 150.767 74.8719C147.495 74.8719 145.576 73.0485 145.576 70.5414C145.576 68.0343 147.269 66.3249 151.557 66.3249H154.83C154.83 64.6155 153.814 63.5898 151.557 63.5898C150.09 63.5898 148.51 64.0456 147.495 64.9573L146.028 62.1083C147.607 60.9687 149.864 60.3989 152.009 60.3989C156.41 60.3989 158.892 62.3362 158.892 66.6667ZM154.83 70.1995V68.718H152.009C150.09 68.718 149.526 69.4018 149.526 70.4274C149.526 71.4531 150.429 72.1368 151.783 72.1368C153.137 72.1368 154.378 71.567 154.83 70.1995Z" fill="white"/>
<path d="M176.949 55.2705V74.7577H173.112V73.1622C172.096 74.4158 170.629 74.9856 168.711 74.9856C164.761 74.9856 161.714 72.1366 161.714 67.6922C161.714 63.2477 164.761 60.3987 168.711 60.3987C170.403 60.3987 171.87 60.9685 172.886 62.1081V55.2705H176.949ZM172.999 67.6922C172.999 65.299 171.419 63.8175 169.388 63.8175C167.356 63.8175 165.776 65.299 165.776 67.6922C165.776 70.0853 167.356 71.5668 169.388 71.5668C171.419 71.5668 172.999 70.0853 172.999 67.6922Z" fill="white"/>
<path d="M194.327 68.832H183.719C184.058 70.5414 185.638 71.681 187.669 71.681C189.136 71.681 190.265 71.2251 191.167 70.3135L193.312 72.7066C191.957 74.1881 190.039 74.9858 187.556 74.9858C182.704 74.9858 179.544 71.9089 179.544 67.6924C179.544 63.4759 182.704 60.3989 186.992 60.3989C191.055 60.3989 194.327 63.134 194.327 67.6924C194.44 68.0343 194.327 68.4901 194.327 68.832ZM183.719 66.4388H190.603C190.265 64.6154 189.023 63.4758 187.218 63.4758C185.299 63.4758 183.945 64.6154 183.719 66.4388Z" fill="white"/>
<path d="M220.735 66.6667V74.7579H216.672V67.2365C216.672 64.9573 215.656 63.9317 213.964 63.9317C212.158 63.9317 210.917 65.0713 210.917 67.5784V74.6439H206.854V67.2365C206.854 64.9573 205.838 63.9317 204.146 63.9317C202.34 63.9317 201.099 65.0713 201.099 67.5784V74.6439H197.036V60.6268H200.873V62.2223C201.889 60.9687 203.469 60.3989 205.274 60.3989C207.193 60.3989 208.885 61.1966 209.901 62.6781C211.029 61.1966 212.835 60.3989 214.979 60.3989C218.365 60.3989 220.735 62.3362 220.735 66.6667Z" fill="white"/>
<path d="M238 60.6265L231.68 75.6692C230.326 79.088 228.408 80.1137 225.925 80.1137C224.458 80.1137 222.991 79.6578 221.975 78.8601L223.442 75.8971C224.119 76.4669 224.909 76.8088 225.699 76.8088C226.828 76.8088 227.392 76.353 227.956 75.0994V74.9854L221.862 60.7404H226.038L229.987 70.3131L233.937 60.7404H238V60.6265Z" fill="white"/>
</g>
<defs>
<clipPath id="clip0_2_7299">
<rect width="238" height="80" fill="white"/>
</clipPath>
</defs>
</svg>
