<svg width="32" height="30" viewBox="0 0 32 30" fill="none" xmlns="http://www.w3.org/2000/svg">
<path d="M10.6 4.4001L8.9 2.7001C8.1 1.9001 6.9 1.9001 6.1 2.7001L4.7 4.1001C3.9 4.9001 3.9 6.1001 4.7 6.9001L6.4 8.6001C6 9.4001 5.7 10.2001 5.4 11.0001H3C1.9 11.0001 1 11.9001 1 13.0001V15.0001C1 16.1001 1.9 17.0001 3 17.0001H5.4C5.6 17.8001 6 18.6001 6.4 19.4001L4.7 21.1001C3.9 21.9001 3.9 23.1001 4.7 23.9001L6.1 25.3001C6.9 26.1001 8.1 26.1001 8.9 25.3001L10.6 23.6001C11.3 24.0001 12.1 24.3001 13 24.6001V27.0001C13 28.1001 13.9 29.0001 15 29.0001H17C18.1 29.0001 19 28.1001 19 27.0001V24.6001C19.8 24.4001 20.6 24.0001 21.4 23.6001L23.1 25.3001C23.9 26.1001 25.1 26.1001 25.9 25.3001L27.3 23.9001C28.1 23.1001 28.1 21.9001 27.3 21.1001L25.6 19.4001C26 18.7001 26.3 17.9001 26.6 17.0001H29C30.1 17.0001 31 16.1001 31 15.0001V13.0001" stroke="#FF5252" stroke-width="2" stroke-miterlimit="10" stroke-linecap="round" stroke-linejoin="round"/>
<path d="M16 18C16.5523 18 17 17.5523 17 17C17 16.4477 16.5523 16 16 16C15.4477 16 15 16.4477 15 17C15 17.5523 15.4477 18 16 18Z" fill="#FF5252"/>
<path d="M20 18C20.5523 18 21 17.5523 21 17C21 16.4477 20.5523 16 20 16C19.4477 16 19 16.4477 19 17C19 17.5523 19.4477 18 20 18Z" fill="#FF5252"/>
<path d="M12 18C12.5523 18 13 17.5523 13 17C13 16.4477 12.5523 16 12 16C11.4477 16 11 16.4477 11 17C11 17.5523 11.4477 18 12 18Z" fill="#FF5252"/>
<path d="M21 5C24.3137 5 27 4.10457 27 3C27 1.89543 24.3137 1 21 1C17.6863 1 15 1.89543 15 3C15 4.10457 17.6863 5 21 5Z" stroke="#1C2ECC" stroke-width="2" stroke-miterlimit="10" stroke-linecap="round" stroke-linejoin="round"/>
<path d="M15 3V7C15 8.1 17.7 9 21 9C24.3 9 27 8.1 27 7V3" stroke="#1C2ECC" stroke-width="2" stroke-miterlimit="10" stroke-linecap="round" stroke-linejoin="round"/>
<path d="M15 7V11C15 12.1 17.7 13 21 13C24.3 13 27 12.1 27 11V7" stroke="#1C2ECC" stroke-width="2" stroke-miterlimit="10" stroke-linecap="round" stroke-linejoin="round"/>
</svg>
