<svg width="100" height="42" viewBox="0 0 100 42" fill="none" xmlns="http://www.w3.org/2000/svg">
<g clip-path="url(#clip0_2_235)">
<path d="M42.9662 35.731C42.7528 35.5713 42.6275 35.3553 42.5904 35.0924H43.0079C43.045 35.2473 43.1193 35.3741 43.2353 35.4774C43.3513 35.5807 43.5229 35.6324 43.7456 35.6324C44.0843 35.6324 44.3302 35.5479 44.4787 35.3788C44.6271 35.2098 44.7013 34.9797 44.7013 34.6932V34.28C44.5854 34.4209 44.4415 34.5336 44.2699 34.6134C44.0982 34.6979 43.9033 34.7355 43.6853 34.7355C43.4301 34.7355 43.2028 34.6744 43.0079 34.557C42.8084 34.4396 42.6553 34.2659 42.544 34.0358C42.4326 33.8104 42.377 33.5427 42.377 33.2375C42.377 32.9323 42.4373 32.6646 42.5533 32.4392C42.6692 32.2138 42.827 32.04 43.0311 31.9179C43.2353 31.8005 43.4626 31.7395 43.7178 31.7395C43.9405 31.7395 44.126 31.7771 44.2745 31.8522C44.4276 31.9273 44.5668 32.04 44.6967 32.1903V31.7959H45.0586V34.7167C45.0586 34.9562 45.0076 35.1722 44.9101 35.36C44.8127 35.5479 44.6642 35.6981 44.4694 35.8061C44.2745 35.9141 44.0379 35.9658 43.7642 35.9658C43.4487 35.9705 43.1796 35.8907 42.9662 35.731ZM44.4415 34.1344C44.6132 33.9607 44.7013 33.7353 44.7013 33.4535V33.0309C44.7013 32.8524 44.6596 32.6881 44.5714 32.5425C44.4833 32.3969 44.3719 32.2842 44.2281 32.1997C44.0843 32.1152 43.9265 32.0776 43.7549 32.0776C43.4626 32.0776 43.2167 32.1762 43.0265 32.3781C42.8363 32.5801 42.7388 32.8665 42.7388 33.2375C42.7388 33.6085 42.8363 33.8949 43.0265 34.0968C43.2167 34.2988 43.4626 34.3974 43.7549 34.3974C44.0379 34.3927 44.2699 34.3082 44.4415 34.1344Z" fill="white"/>
<path d="M45.9734 31.7959H46.3353V32.2373C46.4188 32.1011 46.5301 31.9837 46.6786 31.8851C46.8271 31.7865 46.9894 31.7395 47.1565 31.7395C47.2678 31.7395 47.3513 31.7536 47.407 31.7865L47.342 32.0964C47.2957 32.087 47.2261 32.0776 47.1379 32.0776C46.9802 32.0776 46.8224 32.1387 46.674 32.256C46.5209 32.3734 46.4095 32.5284 46.3306 32.7162V34.7308H45.9688V31.7959H45.9734Z" fill="white"/>
<path d="M48.4908 34.5992C48.2682 34.4678 48.0965 34.2846 47.9759 34.0545C47.8552 33.8197 47.7949 33.5614 47.7949 33.2703C47.7949 32.9792 47.8552 32.7209 47.9759 32.4861C48.0965 32.2513 48.2682 32.0729 48.4908 31.9414C48.7135 31.8099 48.9641 31.7441 49.2517 31.7441C49.5394 31.7441 49.7899 31.8099 50.0126 31.9414C50.2353 32.0729 50.4023 32.256 50.5276 32.4861C50.6482 32.7209 50.7085 32.9792 50.7085 33.2703C50.7085 33.5614 50.6482 33.8197 50.5276 34.0545C50.407 34.2893 50.2353 34.4678 50.0126 34.5992C49.7899 34.7307 49.5394 34.7965 49.2517 34.7965C48.9641 34.7965 48.7135 34.7307 48.4908 34.5992ZM49.7992 34.3175C49.9662 34.2283 50.1008 34.0921 50.1982 33.9136C50.3003 33.7352 50.3513 33.5192 50.3513 33.2656C50.3513 33.012 50.3003 32.8007 50.1982 32.6176C50.0961 32.4391 49.9616 32.303 49.7992 32.2137C49.6322 32.1245 49.4512 32.0775 49.2517 32.0775C49.0522 32.0775 48.8713 32.1245 48.7043 32.2137C48.5372 32.303 48.4027 32.4391 48.3053 32.6176C48.2032 32.796 48.1522 33.012 48.1522 33.2656C48.1522 33.5192 48.2032 33.7305 48.3053 33.9136C48.4073 34.0921 48.5372 34.2283 48.7043 34.3175C48.8713 34.4067 49.0522 34.4537 49.2517 34.4537C49.4512 34.4537 49.6322 34.4067 49.7992 34.3175Z" fill="white"/>
<path d="M51.6978 34.543C51.5308 34.3786 51.4473 34.1391 51.4473 33.8292V31.7959H51.8091V33.8104C51.8091 34.0077 51.8695 34.1626 51.9854 34.28C52.1014 34.3974 52.2638 34.4538 52.4726 34.4538C52.6582 34.4538 52.8391 34.388 53.0108 34.2612C53.1824 34.1297 53.3216 33.9654 53.4283 33.7541V31.7959H53.7902V34.7355H53.4283V34.2424C53.3355 34.388 53.1964 34.5148 53.0061 34.6275C52.8159 34.7402 52.6118 34.7966 52.3984 34.7966C52.0968 34.7966 51.8648 34.712 51.6978 34.543Z" fill="white"/>
<path d="M54.6941 31.7959H55.056V32.2138C55.1627 32.0777 55.2972 31.965 55.4642 31.871C55.6313 31.7818 55.8308 31.7349 56.0535 31.7349C56.2947 31.7349 56.5081 31.7959 56.6983 31.9133C56.8886 32.0307 57.037 32.2091 57.1437 32.4392C57.2504 32.6693 57.3061 32.9464 57.3061 33.261C57.3061 33.5757 57.2504 33.8527 57.1391 34.0828C57.0277 34.3129 56.8793 34.4914 56.6844 34.6087C56.4942 34.7261 56.2715 34.7872 56.0256 34.7872C55.8215 34.7872 55.6359 34.7449 55.4689 34.6651C55.3019 34.5853 55.1627 34.4679 55.0513 34.3129V35.9001H54.6895V31.7959H54.6941ZM56.6844 34.1439C56.8607 33.9372 56.9442 33.6461 56.9442 33.2657C56.9442 32.8807 56.8607 32.5895 56.6937 32.3829C56.5267 32.181 56.2901 32.0777 55.9792 32.0777C55.7797 32.0777 55.6127 32.1246 55.4735 32.2138C55.3343 32.3031 55.2276 32.4205 55.158 32.566C55.0884 32.7116 55.0513 32.8619 55.0513 33.0262V33.5428C55.0513 33.6837 55.0931 33.8245 55.172 33.9654C55.2508 34.1063 55.3622 34.2237 55.5014 34.3129C55.6405 34.4068 55.8029 34.4491 55.9792 34.4491C56.2762 34.4538 56.5128 34.3505 56.6844 34.1439Z" fill="white"/>
<path d="M59.9791 34.5992C59.7564 34.4678 59.5848 34.2846 59.4641 34.0545C59.3435 33.8197 59.2832 33.5614 59.2832 33.2703C59.2832 32.9792 59.3435 32.7209 59.4641 32.4861C59.5848 32.2513 59.7564 32.0729 59.9791 31.9414C60.2018 31.8099 60.4524 31.7441 60.74 31.7441C61.0277 31.7441 61.2782 31.8099 61.5009 31.9414C61.7236 32.0729 61.8952 32.256 62.0159 32.4861C62.1365 32.7209 62.1968 32.9792 62.1968 33.2703C62.1968 33.5614 62.1365 33.8197 62.0159 34.0545C61.8952 34.2893 61.7236 34.4678 61.5009 34.5992C61.2782 34.7307 61.0277 34.7965 60.74 34.7965C60.4524 34.7965 60.2018 34.7307 59.9791 34.5992ZM61.2875 34.3175C61.4545 34.2283 61.589 34.0921 61.6865 33.9136C61.7839 33.7352 61.8396 33.5192 61.8396 33.2656C61.8396 33.012 61.7885 32.8007 61.6865 32.6176C61.5844 32.4344 61.4499 32.303 61.2875 32.2137C61.1204 32.1245 60.9395 32.0775 60.74 32.0775C60.5405 32.0775 60.3596 32.1245 60.1925 32.2137C60.0255 32.303 59.891 32.4391 59.7935 32.6176C59.6961 32.796 59.6404 33.012 59.6404 33.2656C59.6404 33.5192 59.6915 33.7305 59.7935 33.9136C59.8956 34.0968 60.0302 34.2283 60.1925 34.3175C60.3596 34.4067 60.5405 34.4537 60.74 34.4537C60.9395 34.4537 61.1204 34.4067 61.2875 34.3175Z" fill="white"/>
<path d="M63.107 32.1012H62.6152V31.796H63.107V31.1573C63.107 30.9085 63.172 30.7206 63.3065 30.5891C63.4411 30.4576 63.6127 30.3872 63.8215 30.3872C63.9375 30.3872 64.0489 30.4013 64.1602 30.4342V30.7441C64.0581 30.7065 63.9607 30.6924 63.8633 30.6924C63.7194 30.6924 63.6174 30.7347 63.5571 30.8239C63.4968 30.9085 63.4689 31.0352 63.4689 31.1949V31.8007H64.1138V32.1059H63.4689V34.7403H63.107V32.1012Z" fill="white"/>
<path d="M66.2324 30.6221H66.6268V34.7357H66.2324V30.6221Z" fill="white"/>
<path d="M68.4233 30.9835H67.3887V30.6172H69.8523V30.9835H68.8176V34.7355H68.4233V30.9835Z" fill="white"/>
<path d="M72.4913 34.6041C72.2779 34.4773 72.1063 34.2988 71.9856 34.064C71.865 33.8339 71.8047 33.5663 71.8047 33.2657C71.8047 32.9652 71.865 32.6975 71.9856 32.4674C72.1063 32.2373 72.2779 32.0589 72.4913 31.9274C72.7048 31.8006 72.9506 31.7349 73.2244 31.7349C73.6048 31.7349 73.9064 31.8288 74.1337 32.0119C74.3611 32.1998 74.5002 32.4627 74.5559 32.8102H74.2126C74.1569 32.5754 74.0502 32.3923 73.8832 32.2655C73.7162 32.1387 73.5027 32.073 73.2337 32.073C73.0295 32.073 72.8439 32.1246 72.6816 32.2232C72.5192 32.3219 72.3893 32.4627 72.2965 32.6459C72.2037 32.8243 72.1573 33.0309 72.1573 33.261C72.1573 33.4911 72.2037 33.6977 72.2965 33.8762C72.3893 34.0546 72.5192 34.1955 72.6816 34.2941C72.8439 34.3927 73.0295 34.4444 73.2337 34.4444C73.512 34.4444 73.7301 34.3833 73.8832 34.2613C74.0363 34.1392 74.1476 33.956 74.2126 33.7118H74.5559C74.5188 34.0312 74.3796 34.2941 74.1384 34.4914C73.8971 34.6886 73.5955 34.7872 73.2244 34.7872C72.9506 34.7966 72.7094 34.7308 72.4913 34.6041Z" fill="white"/>
<path d="M75.8639 34.5992C75.6412 34.4678 75.4742 34.2846 75.3489 34.0545C75.2283 33.8197 75.168 33.5614 75.168 33.2703C75.168 32.9792 75.2283 32.7209 75.3489 32.4861C75.4695 32.2513 75.6412 32.0729 75.8639 31.9414C76.0866 31.8099 76.3371 31.7441 76.6248 31.7441C76.9124 31.7441 77.1629 31.8099 77.3856 31.9414C77.6083 32.0729 77.78 32.256 77.9006 32.4861C78.0212 32.7209 78.0815 32.9792 78.0815 33.2703C78.0815 33.5614 78.0212 33.8197 77.9006 34.0545C77.78 34.2893 77.6083 34.4678 77.3856 34.5992C77.1629 34.7307 76.9124 34.7965 76.6248 34.7965C76.3371 34.7965 76.0866 34.7307 75.8639 34.5992ZM77.1722 34.3175C77.3392 34.2283 77.4738 34.0921 77.5712 33.9136C77.6733 33.7352 77.7243 33.5192 77.7243 33.2656C77.7243 33.012 77.6733 32.8007 77.5712 32.6176C77.4691 32.4391 77.3346 32.303 77.1722 32.2137C77.0052 32.1245 76.8242 32.0775 76.6248 32.0775C76.4253 32.0775 76.2443 32.1245 76.0773 32.2137C75.9103 32.303 75.7757 32.4391 75.6783 32.6176C75.5762 32.796 75.5252 33.012 75.5252 33.2656C75.5252 33.5192 75.5762 33.7305 75.6783 33.9136C75.7804 34.0921 75.9149 34.2283 76.0773 34.3175C76.2443 34.4067 76.4253 34.4537 76.6248 34.4537C76.8242 34.4537 77.0052 34.4067 77.1722 34.3175Z" fill="white"/>
<path d="M78.8538 31.7959H79.2156V32.2373C79.3038 32.1011 79.4337 31.9837 79.6007 31.8851C79.7677 31.7865 79.9394 31.7396 80.1157 31.7396C80.4869 31.7396 80.7374 31.8992 80.872 32.2138C80.9879 32.0636 81.1271 31.9462 81.2895 31.8617C81.4519 31.7771 81.6282 31.7349 81.8231 31.7349C82.0829 31.7349 82.2824 31.81 82.4262 31.9603C82.57 32.1105 82.6396 32.3218 82.6396 32.5942V34.7355H82.2777V32.6834C82.2777 32.2796 82.0968 32.0777 81.7303 32.0777C81.5772 32.0777 81.4287 32.1293 81.2802 32.2326C81.1318 32.3359 81.0111 32.4627 80.923 32.613V34.7355H80.5611V32.7069C80.5611 32.505 80.5147 32.35 80.4173 32.242C80.3245 32.134 80.1946 32.0777 80.0368 32.0777C79.8652 32.0777 79.7074 32.1387 79.5636 32.2561C79.4198 32.3735 79.2992 32.5191 79.2064 32.6834V34.7355H78.8398L78.8538 31.7959Z" fill="white"/>
<path d="M83.5242 31.7959H83.8861V32.2138C83.9928 32.0777 84.1273 31.965 84.2943 31.871C84.4614 31.7818 84.6609 31.7349 84.8836 31.7349C85.1248 31.7349 85.3382 31.7959 85.5284 31.9133C85.7187 32.0307 85.8671 32.2091 85.9738 32.4392C86.0805 32.6693 86.1362 32.9464 86.1362 33.261C86.1362 33.5757 86.0805 33.8527 85.9692 34.0828C85.8579 34.3129 85.7094 34.4914 85.5145 34.6087C85.3243 34.7261 85.1016 34.7872 84.8557 34.7872C84.6516 34.7872 84.466 34.7449 84.299 34.6651C84.132 34.5853 83.9928 34.4679 83.8814 34.3129V35.9001H83.5195V31.7959H83.5242ZM85.5192 34.1439C85.6955 33.9372 85.779 33.6461 85.779 33.2657C85.779 32.8807 85.6955 32.5895 85.5284 32.3829C85.3614 32.181 85.1248 32.0777 84.814 32.0777C84.6145 32.0777 84.4474 32.1246 84.3083 32.2138C84.1691 32.3031 84.0624 32.4205 83.9928 32.566C83.9232 32.7116 83.8861 32.8619 83.8861 33.0262V33.5428C83.8861 33.6837 83.9278 33.8245 84.0067 33.9654C84.0856 34.1063 84.1969 34.2237 84.3361 34.3129C84.4753 34.4068 84.6377 34.4491 84.814 34.4491C85.1109 34.4538 85.3429 34.3505 85.5192 34.1439Z" fill="white"/>
<path d="M87.0003 34.5523C86.8425 34.3927 86.7637 34.1814 86.7637 33.9184C86.7637 33.646 86.8565 33.4347 87.0467 33.2798C87.2323 33.1248 87.4735 33.0356 87.7565 33.0074L88.6566 32.9135V32.7914C88.6566 32.3171 88.4153 32.0823 87.9375 32.0823C87.7565 32.0823 87.6034 32.134 87.4828 32.2326C87.3622 32.3312 87.2926 32.4674 87.274 32.6364H86.9121C86.9353 32.3406 87.0467 32.1152 87.2508 31.9649C87.455 31.8146 87.6869 31.7395 87.9467 31.7395C88.2854 31.7395 88.5452 31.8334 88.7355 32.0166C88.921 32.1997 89.0185 32.4533 89.0185 32.782V34.1391C89.0185 34.2377 89.0417 34.3128 89.0834 34.3645C89.1252 34.4162 89.1901 34.4443 89.2736 34.4443C89.3247 34.4443 89.3757 34.4349 89.4268 34.4209V34.7167C89.3479 34.7543 89.2551 34.7777 89.1484 34.7777C89.0046 34.7777 88.8886 34.7308 88.8051 34.6416C88.7215 34.5476 88.6705 34.4349 88.6612 34.3035C88.3643 34.6369 88.0303 34.8012 87.6545 34.8012C87.3761 34.7965 87.158 34.712 87.0003 34.5523ZM88.6566 33.8667V33.2281L87.8632 33.3126C87.6359 33.3361 87.455 33.4018 87.3251 33.5052C87.1951 33.6085 87.1256 33.7493 87.1256 33.9278C87.1256 34.0827 87.1766 34.2142 87.2833 34.3128C87.39 34.4115 87.5292 34.4631 87.7009 34.4631C88.0627 34.4537 88.3829 34.2565 88.6566 33.8667Z" fill="white"/>
<path d="M90.1226 31.7959H90.4844V32.289C90.5772 32.1434 90.7164 32.0166 90.9066 31.9039C91.0969 31.7912 91.301 31.7349 91.5144 31.7349C91.8067 31.7349 92.0387 31.8147 92.2057 31.979C92.3727 32.1434 92.4562 32.3688 92.4562 32.6646V34.7355H92.0943V32.721C92.0943 32.5238 92.034 32.3688 91.918 32.2514C91.8021 32.134 91.6397 32.0777 91.4309 32.0777C91.2546 32.0777 91.0783 32.1434 90.9066 32.2702C90.735 32.397 90.5911 32.566 90.4752 32.7773V34.7355H90.1133V31.7959H90.1226Z" fill="white"/>
<path d="M93.3374 31.1949C93.2817 31.1385 93.2539 31.0728 93.2539 30.9976C93.2539 30.9178 93.2817 30.8521 93.3374 30.7957C93.3931 30.7394 93.458 30.7112 93.5323 30.7112C93.6112 30.7112 93.6761 30.7394 93.7318 30.7957C93.7875 30.8521 93.8153 30.9178 93.8153 30.9976C93.8153 31.0728 93.7875 31.1385 93.7318 31.1949C93.6761 31.2512 93.6112 31.2794 93.5323 31.2794C93.458 31.2794 93.3931 31.2512 93.3374 31.1949ZM93.3513 31.7959H93.7132V34.7356H93.3513V31.7959Z" fill="white"/>
<path d="M95.142 34.6041C94.9332 34.4773 94.7708 34.2988 94.6548 34.064C94.5388 33.8339 94.4785 33.5663 94.4785 33.2657C94.4785 32.9699 94.5388 32.7022 94.6595 32.4674C94.7801 32.2326 94.9471 32.0542 95.1605 31.9274C95.3693 31.8006 95.6013 31.7349 95.8565 31.7349C96.1116 31.7349 96.3343 31.7912 96.5338 31.9039C96.7333 32.0166 96.8911 32.181 97.0024 32.397C97.1184 32.613 97.1741 32.8666 97.1741 33.153V33.3315H94.8729C94.8775 33.6649 94.9703 33.9325 95.1559 34.1392C95.3415 34.3458 95.5781 34.4491 95.8657 34.4491C96.1209 34.4491 96.3158 34.388 96.4503 34.2706C96.5848 34.1533 96.6776 33.9936 96.738 33.7964H97.0998C97.021 34.1063 96.8818 34.3505 96.673 34.5242C96.4642 34.7027 96.1951 34.7872 95.8611 34.7872C95.592 34.7966 95.3507 34.7308 95.142 34.6041ZM96.8168 33.0309C96.8122 32.8572 96.7704 32.6975 96.6869 32.552C96.6034 32.4064 96.4921 32.289 96.3482 32.2045C96.2044 32.1199 96.0374 32.0777 95.8565 32.0777C95.5827 32.0777 95.3554 32.1669 95.1837 32.3406C95.0121 32.5144 94.9053 32.7445 94.8775 33.0262H96.8168V33.0309Z" fill="white"/>
<path d="M98.0511 34.5382C97.8516 34.3645 97.7356 34.125 97.7031 33.8198H98.065C98.1021 34.0405 98.181 34.2001 98.3109 34.3035C98.4408 34.4068 98.6218 34.4584 98.8584 34.4584C99.0347 34.4584 99.1924 34.4115 99.327 34.3128C99.4615 34.2189 99.5311 34.0827 99.5311 33.909C99.5311 33.754 99.4661 33.6366 99.3409 33.5474C99.211 33.4582 98.9929 33.3831 98.6867 33.3173C98.3944 33.2563 98.1717 33.153 98.0325 33.0121C97.8887 32.8712 97.8191 32.7022 97.8191 32.5049C97.8191 32.3687 97.8562 32.242 97.9305 32.1246C98.0047 32.0072 98.116 31.9179 98.2552 31.8475C98.3944 31.7771 98.5614 31.7395 98.747 31.7395C99.0254 31.7395 99.262 31.8146 99.4476 31.9696C99.6378 32.1246 99.7399 32.3359 99.7538 32.6082H99.3919C99.3734 32.4439 99.3038 32.3124 99.1924 32.2138C99.0764 32.1152 98.928 32.0682 98.7424 32.0682C98.5661 32.0682 98.4269 32.1058 98.3248 32.1809C98.2228 32.256 98.1717 32.3594 98.1717 32.4861C98.1717 32.6176 98.2274 32.7209 98.3341 32.8055C98.4408 32.89 98.6449 32.9651 98.9372 33.0309C99.2713 33.1107 99.5125 33.214 99.661 33.3455C99.8141 33.477 99.8883 33.6554 99.8883 33.8855C99.8883 34.0499 99.8466 34.2001 99.7584 34.341C99.6703 34.4819 99.5497 34.5899 99.3873 34.6744C99.2295 34.759 99.0486 34.7965 98.8398 34.7965C98.5197 34.7965 98.2552 34.7073 98.0511 34.5382Z" fill="white"/>
<path d="M40.888 25.9213C40.6375 26.9403 40.3127 27.9405 39.9137 28.9079C38.8837 31.4061 37.3434 33.6789 35.4459 35.5713C33.5437 37.4638 31.261 38.9477 28.8021 39.9432C26.4127 40.9059 23.8517 41.3942 21.2907 41.3942C21.2072 41.3942 21.1283 41.3942 21.0448 41.3895C18.4049 41.3473 15.7836 40.7838 13.3757 39.7319C10.9632 38.6847 8.77795 37.1445 6.94999 35.2614C3.27549 31.5 1.16452 26.2688 1.18771 21C1.16452 15.7265 3.27549 10.5 6.94535 6.7339C8.77795 4.85085 10.9632 3.3106 13.3757 2.26342C15.7836 1.21154 18.4049 0.648032 21.0448 0.605769C23.6847 0.572898 26.3339 1.06127 28.7974 2.0568C31.261 3.05233 33.539 4.53623 35.4459 6.42397C37.3434 8.31641 38.8837 10.5892 39.9137 13.0874C40.3127 14.0548 40.6375 15.055 40.888 16.0693C40.8926 16.0975 40.8973 16.1257 40.9066 16.1538C40.9158 16.1538 40.9251 16.1538 40.9344 16.1538C40.9298 16.121 40.9205 16.0881 40.9112 16.0552C40.0297 12.4065 38.1832 8.98792 35.5618 6.30188C33.6782 4.36248 31.4234 2.77996 28.9413 1.69991C26.4591 0.619857 23.7589 0.042263 21.0448 0C20.9613 0 20.8778 0 20.7943 0C18.1637 0 15.5192 0.50246 13.0602 1.49799C10.527 2.52169 8.17946 4.05255 6.22158 6.00134C4.26835 7.95013 2.68164 10.2887 1.62383 12.8573C0.561381 15.426 0.00927902 18.2106 0 21C0.0139185 23.7894 0.561381 26.5693 1.62383 29.1427C2.68628 31.7113 4.26835 34.0499 6.22158 36.0034C8.17946 37.9475 10.527 39.4783 13.0602 40.502C15.598 41.5257 18.3261 42.0329 21.0402 42C23.7543 41.9577 26.4545 41.3801 28.9366 40.2954C31.4188 39.22 33.6736 37.6328 35.5572 35.6981C38.1832 33.0027 40.0343 29.5841 40.9112 25.9307" fill="white"/>
<path d="M19.8522 16.074H17.7598V25.9259H19.8522V16.074Z" fill="white"/>
<path d="M23.3965 18.004H27.2798V25.9259H29.3768V18.004H33.2601V16.074H23.3965V18.004Z" fill="white"/>
<path d="M36.7734 25.9259H40.8841H45.2823V23.9912H38.8705V21.9532H44.9993V20.0185H38.8705V18.004H41.2831H45.2823V16.074H36.7734V25.9259Z" fill="white"/>
<path d="M58.2919 16.9192C57.6423 16.3604 56.7469 16.074 55.6195 16.074H49.5742V25.9259H51.6713V22.4322H53.8704L56.9464 25.9259H59.2337V25.4423L56.5335 22.3665C57.3408 22.235 57.9949 21.9297 58.4682 21.4508C59.0017 20.9154 59.2755 20.2298 59.2755 19.4174V19.2437C59.2801 18.267 58.946 17.4827 58.2919 16.9192ZM51.6713 18.004H55.5778C56.0974 18.004 56.4964 18.1073 56.7655 18.3139C57.0253 18.5158 57.1506 18.7929 57.1506 19.1639V19.3376C57.1506 19.718 57.0253 19.9997 56.7655 20.2017C56.4964 20.4083 56.0974 20.5116 55.5778 20.5116H51.6713V18.004Z" fill="white"/>
<path d="M71.1513 22.7985L65.556 16.074H63.5703V25.9259H65.6256V19.1873L71.2162 25.9259H73.202V16.074H71.1513V22.7985Z" fill="white"/>
<path d="M83.3015 16.074H81.1302L76.7737 25.4329L76.7598 25.9259H78.8336L79.8126 23.7424H84.6237L85.6027 25.9259H87.6719V25.4986L83.3432 16.1632L83.3015 16.074ZM83.7376 21.8077H80.6894L82.2112 18.4219L83.7376 21.8077Z" fill="white"/>
<path d="M93.3295 23.9912V16.074H91.2324V25.9259H100.001V23.9912H93.3295Z" fill="white"/>
</g>
<defs>
<clipPath id="clip0_2_235">
<rect width="100" height="42" fill="white"/>
</clipPath>
</defs>
</svg>
