<svg width="32" height="32" viewBox="0 0 32 32" fill="none" xmlns="http://www.w3.org/2000/svg">
<path d="M18 25H19V31L25 25H26C28.8 25 31 22.8 31 20V6C31 3.2 28.8 1 26 1H6C3.2 1 1 3.2 1 6V16" stroke="#FF5252" stroke-width="2" stroke-miterlimit="10" stroke-linejoin="round"/>
<path d="M8 31C11.866 31 15 27.866 15 24C15 20.134 11.866 17 8 17C4.13401 17 1 20.134 1 24C1 27.866 4.13401 31 8 31Z" stroke="#1C2ECC" stroke-width="2" stroke-miterlimit="10" stroke-linejoin="round"/>
<path d="M5 24L7 26L11 22" stroke="#1C2ECC" stroke-width="2" stroke-miterlimit="10" stroke-linejoin="round"/>
</svg>
