<svg width="29" height="31" viewBox="0 0 29 31" fill="none" xmlns="http://www.w3.org/2000/svg">
<path fill-rule="evenodd" clip-rule="evenodd" d="M20.1382 2C18.9333 2 17.775 2.48476 16.919 3.3519L4.154 16.2827C2.77627 17.6783 2 19.5738 2 21.553C2 23.5322 2.77627 25.4278 4.154 26.8234C5.53129 28.2186 7.39654 29 9.33868 29C11.2808 29 13.1461 28.2186 14.5234 26.8234L27.2883 13.8927C27.6763 13.4996 28.3095 13.4955 28.7025 13.8835C29.0956 14.2715 29.0997 14.9047 28.7117 15.2977L15.9467 28.2285C14.1964 30.0015 11.8196 31 9.33868 31C6.85771 31 4.48101 30.0015 2.73069 28.2285C0.980801 26.4559 0 24.0544 0 21.553C0 19.0517 0.980801 16.6502 2.73069 14.8776L15.4957 1.94684C16.7247 0.701831 18.3944 0 20.1382 0C21.882 0 23.5517 0.701831 24.7808 1.94684C26.0094 3.19142 26.6973 4.87671 26.6973 6.63131C26.6973 8.38591 26.0094 10.0712 24.7808 11.3158L12.0019 24.2465C11.2941 24.9633 10.3312 25.3687 9.32479 25.3687C8.31819 25.3687 7.35547 24.9635 6.64769 24.2465C5.94034 23.53 5.54523 22.5609 5.54523 21.553C5.54523 20.5452 5.94034 19.5761 6.64769 18.8595L18.4408 6.92736C18.829 6.53456 19.4622 6.53085 19.855 6.91907C20.2478 7.3073 20.2515 7.94046 19.8633 8.33326L8.071 20.2646C7.73607 20.6041 7.54523 21.0676 7.54523 21.553C7.54523 22.0387 7.73581 22.5019 8.071 22.8415C8.40575 23.1806 8.85702 23.3687 9.32479 23.3687C9.79256 23.3687 10.2438 23.1806 10.5786 22.8415L23.3575 9.91072C24.2139 9.04315 24.6973 7.86375 24.6973 6.63131C24.6973 5.39888 24.2139 4.21948 23.3575 3.3519C22.5014 2.48476 21.3432 2 20.1382 2Z" fill="#1C2ECC"/>
</svg>
