<svg width="251" height="36" viewBox="0 0 251 36" fill="none" xmlns="http://www.w3.org/2000/svg">
<path fill-rule="evenodd" clip-rule="evenodd" d="M0.456101 0H11.9246V12.3536H18.2383C19.4403 12.3536 20.4552 12.0238 21.3408 11.3752C22.2186 10.7324 22.8032 9.88729 23.1057 8.78064L25.4797 0.0471507H37.732L34.3518 12.4008H37.2759V36H25.7592V23.6464H19.4938C18.2519 23.6464 17.2227 23.9805 16.3429 24.6248C15.4651 25.2676 14.8805 26.1128 14.578 27.2195L12.204 35.9529H0L3.38018 23.5992H0.456101V0ZM3.47412 2.94695V20.6523H7.3104L3.93022 33.0059H9.88259L11.6616 26.4612C12.1319 24.7394 13.0924 23.3216 14.5321 22.2672C15.9702 21.214 17.6452 20.6994 19.4938 20.6994H28.7772V33.053H34.2579V15.3477H30.4216L33.8018 2.99411H27.8012L26.0221 9.5388C25.5519 11.2606 24.5914 12.6784 23.1516 13.7328C21.7193 14.7817 20.0623 15.3006 18.2383 15.3006H8.90655V2.94695H3.47412Z" fill="white"/>
<path d="M45.9346 0.0512814H82.5923V9.02564H45.9346V0.0512814ZM59.6551 13.4872H68.8195V35.9487H59.6551V13.4872Z" fill="white"/>
<path d="M87.8189 0.0512814H124.477V9.02564H87.8189V0.0512814ZM97.0357 22.5128V23.2821C97.0357 24.2735 97.4023 25.1453 98.1354 25.8974C98.8686 26.6154 99.7763 26.9744 100.859 26.9744H124.477V35.9487H100.387C98.6416 35.9487 97.0008 35.6239 95.4647 34.9744C93.9634 34.3248 92.6368 33.453 91.4847 32.359C90.3675 31.2308 89.4772 29.9316 88.8139 28.4615C88.1506 26.9573 87.8189 25.3504 87.8189 23.641V13.4872H119.921V22.5128H97.0357Z" fill="white"/>
<path d="M164.828 0V35.8974H155.611V26.9231H140.477L138.015 35.8974H128.118C129.095 32.4103 130.055 28.9573 130.998 25.5385C131.941 22.0855 132.901 18.6154 133.878 15.1282C134.507 12.8718 135.449 10.8205 136.706 8.97436C137.963 7.12821 139.464 5.53846 141.21 4.20513C142.99 2.87179 144.945 1.84615 147.075 1.12821C149.24 0.410256 151.509 0.0512814 153.883 0.0512814L164.828 0ZM155.611 18V8.97436H153.359C152.172 8.97436 151.038 9.16239 149.955 9.53846C148.873 9.88034 147.878 10.3932 146.97 11.0769C146.098 11.7265 145.347 12.5299 144.719 13.4872C144.09 14.4103 143.619 15.4359 143.305 16.5641L142.938 18H155.611Z" fill="white"/>
<path d="M170.106 0.0512814H193.828C195.923 0.0512814 197.896 0.444444 199.746 1.23077C201.596 2.01709 203.202 3.09402 204.564 4.46154C205.96 5.82906 207.06 7.41881 207.863 9.23077C208.666 11.0427 209.067 12.9744 209.067 15.0256V35.9487H199.903V15.4872C199.903 14.5983 199.728 13.7607 199.379 12.9744C199.065 12.188 198.611 11.5043 198.018 10.9231C197.424 10.3419 196.726 9.88034 195.923 9.53846C195.155 9.19658 194.317 9.02564 193.409 9.02564H189.534C190.756 13.5726 191.978 18.0855 193.2 22.5641C194.457 27.0085 195.696 31.4872 196.918 36H187.073C185.816 31.453 184.577 26.9573 183.355 22.5128C182.133 18.0342 180.911 13.5385 179.689 9.02564H179.218V35.9487H170.053L170.106 0.0512814Z" fill="white"/>
<path d="M223.454 36V27.0256H241.836V26.7692C241.836 25.5726 241.399 24.5641 240.526 23.7436C239.688 22.9231 238.659 22.5128 237.437 22.5128H214.29V0.0512814H250.948V9.02564H223.454V13.4872H237.908C239.723 13.4872 241.417 13.8291 242.988 14.5128C244.594 15.1966 245.99 16.1197 247.177 17.2821C248.364 18.4444 249.289 19.812 249.953 21.3846C250.651 22.9231 251 24.5812 251 26.359V35.9487L223.454 36Z" fill="white"/>
</svg>
