<svg width="100" height="34" viewBox="0 0 100 34" fill="none" xmlns="http://www.w3.org/2000/svg">
<g clip-path="url(#clip0_2_187)">
<path d="M0 0V21.8433H15.1257V0H0ZM9.95733 17.5328V15.9829H9.90991C9.10384 17 7.58653 17.7749 5.59507 17.7749C3.12945 17.7749 1.23281 16.7094 1.23281 13.5128V6.82906H5.21574V12.2536C5.21574 14.0456 5.9744 14.6752 7.30204 14.6752C8.72451 14.6752 9.81508 13.9003 9.81508 12.1567V6.82906H13.8454V17.5328H9.95733Z" fill="white"/>
<path d="M30.679 13.0767C30.0626 16.0795 28.0711 17.7747 23.5666 17.7747C19.0147 17.7747 16.3594 15.9827 16.3594 12.0596C16.3594 8.23337 19.1569 6.34448 23.5666 6.34448C27.4073 6.34448 30.1574 7.50688 30.4893 10.8488H26.3641C26.1745 9.68636 25.321 9.05673 23.614 9.05673C21.7174 9.05673 20.5794 10.1223 20.5794 12.0111C20.5794 13.9 21.6699 14.9656 23.614 14.9656C25.1313 14.9656 26.127 14.2875 26.4115 12.9798H30.679V13.0767Z" fill="white"/>
<path d="M38.9279 6.39331C43.5747 6.39331 46.1351 8.37907 46.1351 12.1084C46.1351 15.8378 43.5747 17.8235 38.9279 17.8235C34.2812 17.8235 31.7207 15.8378 31.7207 12.1084C31.7207 8.33063 34.2812 6.39331 38.9279 6.39331ZM35.9881 12.1084C35.9881 14.0942 37.1261 15.0628 38.9753 15.0628C40.8245 15.0628 41.9625 14.0942 41.9625 12.1084C41.9625 10.1227 40.8245 9.15399 38.9753 9.15399C37.1261 9.10556 35.9881 10.1227 35.9881 12.1084Z" fill="white"/>
<path d="M57.1839 16.1283C56.283 17.1938 54.8605 17.8234 53.2484 17.8234C49.5974 17.8234 47.2266 15.7408 47.2266 12.1083C47.2266 9.05703 49.4551 6.58694 53.201 6.58694C55.0028 6.58694 56.3778 7.16814 57.0416 8.18523H57.0891V3.14819H61.1194V17.5328H57.1839V16.1283ZM54.1967 9.44449C52.3475 9.44449 51.3517 10.3647 51.3517 12.1083C51.3517 13.8519 52.3475 14.7721 54.1967 14.7721C56.0933 14.7721 57.0891 13.7066 57.0891 12.1083C57.0891 10.4616 56.0933 9.44449 54.1967 9.44449Z" fill="white"/>
<path d="M76.623 14.2395C76.1488 15.9831 74.1574 17.7751 69.7951 17.7751C65.1483 17.7751 62.5879 15.9831 62.5879 12.06C62.5879 8.33063 65.4328 6.39331 69.7003 6.39331C74.1099 6.39331 76.8601 8.37907 76.8601 12.738V13.0771H66.7605C66.9502 14.4332 67.8985 15.4503 69.9848 15.4503C71.265 15.4503 71.9288 14.8691 72.403 14.2879H76.623V14.2395ZM72.6875 10.8976C72.4504 9.73519 71.5969 8.7181 69.7003 8.7181C67.8036 8.7181 66.9501 9.68676 66.7131 10.8976H72.6875Z" fill="white"/>
<path d="M34.9922 23.9258H36.7466V31.7235H34.9922V23.9258Z" fill="white"/>
<path d="M40.1609 25.4274H37.6953V23.9744H44.3809V25.4274H41.9153V31.7721H40.1609V25.4274Z" fill="white"/>
<path d="M53.4837 28.3337V31.7725H51.8716V30.9976C51.5397 31.5303 50.9233 31.8209 50.0698 31.8209C48.6947 31.8209 47.8887 31.046 47.8887 29.9805C47.8887 28.9149 48.5999 28.1884 50.4017 28.1884H51.7768C51.7768 27.4619 51.35 27.026 50.4017 27.026C49.7853 27.026 49.1215 27.2198 48.6947 27.6072L48.0783 26.3964C48.7422 25.9121 49.6905 25.6699 50.5914 25.6699C52.4406 25.6699 53.4837 26.4933 53.4837 28.3337ZM51.7768 29.8352V29.2055H50.5914C49.7853 29.2055 49.5482 29.4961 49.5482 29.932C49.5482 30.3679 49.9276 30.6585 50.4965 30.6585C51.113 30.6585 51.5871 30.4164 51.7768 29.8352Z" fill="white"/>
<path d="M54.6699 28.7696C54.6699 26.9776 56.045 25.6699 57.9416 25.6699C59.1744 25.6699 60.1702 26.2027 60.5969 27.2198L59.2693 27.9463C58.9373 27.3651 58.4632 27.1229 57.9416 27.1229C57.0881 27.1229 56.4243 27.7525 56.4243 28.7696C56.4243 29.7867 57.0881 30.4164 57.9416 30.4164C58.4632 30.4164 58.9373 30.1742 59.2693 29.593L60.5969 30.3195C60.1702 31.2882 59.2218 31.8209 57.9416 31.8209C56.045 31.8209 54.6699 30.5617 54.6699 28.7696Z" fill="white"/>
<path d="M66.7611 28.3337V31.7725H65.1489V30.9976C64.817 31.5303 64.2006 31.8209 63.3471 31.8209C61.9721 31.8209 61.166 31.046 61.166 29.9805C61.166 28.9149 61.8773 28.1884 63.6791 28.1884H65.0541C65.0541 27.4619 64.6274 27.026 63.6791 27.026C63.0627 27.026 62.3988 27.2198 61.9721 27.6072L61.3557 26.3964C62.0195 25.9121 62.9678 25.6699 63.8687 25.6699C65.7179 25.6699 66.7611 26.4933 66.7611 28.3337ZM65.0541 29.8352V29.2055H63.8687C63.0627 29.2055 62.8256 29.4961 62.8256 29.932C62.8256 30.3679 63.2049 30.6585 63.7739 30.6585C64.3429 30.6585 64.8645 30.4164 65.0541 29.8352Z" fill="white"/>
<path d="M74.3465 23.4902V31.7723H72.7343V31.0942C72.3076 31.627 71.6912 31.8692 70.8851 31.8692C69.2255 31.8692 67.9453 30.6583 67.9453 28.7694C67.9453 26.8805 69.2255 25.6697 70.8851 25.6697C71.5963 25.6697 72.2127 25.9119 72.6395 26.3962V23.4902H74.3465ZM72.6869 28.7694C72.6869 27.7523 72.0231 27.1227 71.1696 27.1227C70.3161 27.1227 69.6523 27.7523 69.6523 28.7694C69.6523 29.7865 70.3161 30.4162 71.1696 30.4162C72.0231 30.4162 72.6869 29.7865 72.6869 28.7694Z" fill="white"/>
<path d="M81.649 29.254H77.1919C77.3341 29.9805 77.998 30.4648 78.8514 30.4648C79.4678 30.4648 79.942 30.2711 80.3213 29.8836L81.2222 30.9007C80.6532 31.5303 79.8472 31.8694 78.804 31.8694C76.7651 31.8694 75.4375 30.5617 75.4375 28.7696C75.4375 26.9776 76.7651 25.6699 78.5669 25.6699C80.2739 25.6699 81.649 26.8323 81.649 28.7696C81.6964 28.9149 81.649 29.1087 81.649 29.254ZM77.1919 28.2369H80.0842C79.942 27.4619 79.4204 26.9776 78.6618 26.9776C77.8557 26.9776 77.2867 27.4619 77.1919 28.2369Z" fill="white"/>
<path d="M92.7444 28.3337V31.7725H91.0375V28.5759C91.0375 27.6072 90.6107 27.1713 89.8995 27.1713C89.1408 27.1713 88.6193 27.6557 88.6193 28.7212V31.7241H86.9123V28.5759C86.9123 27.6072 86.4855 27.1713 85.7743 27.1713C85.0157 27.1713 84.4941 27.6557 84.4941 28.7212V31.7241H82.7871V25.7668H84.3992V26.4448C84.826 25.9121 85.4898 25.6699 86.2485 25.6699C87.0545 25.6699 87.7658 26.009 88.1925 26.6386C88.6667 26.009 89.4253 25.6699 90.3262 25.6699C91.7487 25.6699 92.7444 26.4933 92.7444 28.3337Z" fill="white"/>
<path d="M99.9992 25.7664L97.3439 32.1595C96.7749 33.6125 95.9689 34.0484 94.9257 34.0484C94.3093 34.0484 93.6929 33.8547 93.2662 33.5156L93.8826 32.2564C94.1671 32.4986 94.499 32.6439 94.8309 32.6439C95.305 32.6439 95.5421 32.4501 95.7792 31.9174V31.8689L93.2188 25.8148H94.9731L96.6327 29.8832L98.2922 25.8148H99.9992V25.7664Z" fill="white"/>
</g>
<defs>
<clipPath id="clip0_2_187">
<rect width="100" height="34" fill="white"/>
</clipPath>
</defs>
</svg>
