<svg width="176" height="42" viewBox="0 0 176 42" fill="none" xmlns="http://www.w3.org/2000/svg">
<path d="M82.8306 13.2142C83.1058 13.2142 83.263 13.3698 83.263 13.6421V16.1706C83.263 16.4429 83.1058 16.5985 82.8306 16.5985H73.6709V19.7883H81.9657C82.2409 19.7883 82.3982 19.9439 82.3982 20.2161V22.7057C82.3982 22.978 82.2409 23.1336 81.9657 23.1336H73.6709V29.4742C73.6709 29.7465 73.5137 29.9021 73.2385 29.9021H70.5259C70.2508 29.9021 70.0935 29.7465 70.0935 29.4742V13.6421C70.0935 13.3698 70.2508 13.2142 70.5259 13.2142H82.8306Z" fill="#00A7D6"/>
<path d="M87.2727 13.6421C87.2727 13.3698 87.4299 13.2142 87.7051 13.2142H90.4177C90.6928 13.2142 90.8501 13.3698 90.8501 13.6421V22.5112C90.8501 25.0008 92.226 26.7512 94.8206 26.7512C97.3366 26.7512 98.8304 25.0786 98.8304 22.5112V13.6421C98.8304 13.3698 98.9877 13.2142 99.2629 13.2142H101.975C102.251 13.2142 102.408 13.3698 102.408 13.6421V22.5501C102.408 26.868 99.4987 30.1355 94.8206 30.1355C90.1818 30.1355 87.2727 26.868 87.2727 22.5501V13.6421Z" fill="#00A7D6"/>
<path d="M120.452 13.2142C120.727 13.2142 120.885 13.3698 120.885 13.6421V16.1706C120.885 16.4429 120.727 16.5985 120.452 16.5985H115.066V29.4742C115.066 29.7465 114.909 29.9021 114.634 29.9021H111.921C111.646 29.9021 111.489 29.7465 111.489 29.4742V16.5985H106.103C105.828 16.5985 105.671 16.4429 105.671 16.1706V13.6421C105.671 13.3698 105.828 13.2142 106.103 13.2142H120.452Z" fill="#00A7D6"/>
<path d="M124.148 13.6421C124.148 13.3698 124.305 13.2142 124.58 13.2142H127.293C127.568 13.2142 127.725 13.3698 127.725 13.6421V22.5112C127.725 25.0008 129.101 26.7512 131.695 26.7512C134.211 26.7512 135.705 25.0786 135.705 22.5112V13.6421C135.705 13.3698 135.863 13.2142 136.138 13.2142H138.85C139.125 13.2142 139.283 13.3698 139.283 13.6421V22.5501C139.283 26.868 136.374 30.1355 131.695 30.1355C127.057 30.1355 124.148 26.868 124.148 22.5501V13.6421Z" fill="#00A7D6"/>
<path d="M151.784 13.2142C155.518 13.2142 158.388 15.8594 158.388 19.3215C158.388 21.5387 157.169 23.4059 155.4 24.4173L158.074 29.4742C158.192 29.7076 158.034 29.9021 157.798 29.9021H154.771C154.536 29.9021 154.339 29.8243 154.221 29.5909L152.177 25.4287C151.941 25.4676 151.823 25.4676 151.666 25.4676H147.341V29.4742C147.341 29.7465 147.184 29.9021 146.909 29.9021H144.196C143.921 29.9021 143.764 29.7465 143.764 29.4742V13.6421C143.764 13.3698 143.921 13.2142 144.196 13.2142H151.784ZM151.784 22.0833C153.749 22.0833 154.811 20.8774 154.811 19.2826C154.811 17.7266 153.71 16.5596 151.784 16.5596H147.341V22.0833H151.784Z" fill="#00A7D6"/>
<path d="M175.568 13.2142C175.843 13.2142 176 13.3698 176 13.6421V16.0928C176 16.3651 175.843 16.5207 175.568 16.5207H166.211V19.6327H174.427C174.703 19.6327 174.86 19.7883 174.86 20.0605V22.5112C174.86 22.7835 174.703 22.9391 174.427 22.9391H166.211V26.5568H175.568C175.843 26.5568 176 26.6734 176 26.9457V29.4742C176 29.7465 175.882 29.8632 175.607 29.8632H163.027C162.752 29.8632 162.595 29.7076 162.595 29.4353V13.6421C162.595 13.4087 162.83 13.2142 163.027 13.2142H175.568Z" fill="#00A7D6"/>
<path d="M0 15.8594C0 23.6393 2.16216 42.1943 13.1302 41.9609C22.5651 41.7664 37.7396 29.7854 40.1376 20.644C42.5749 11.386 28.7371 5.62886 21.8182 3.3727C17.4152 1.93342 10.8108 -0.0893532 6.28993 1.66112C0.786241 3.80059 0.039312 10.7247 0 15.8594Z" fill="#00A7D6"/>
<path d="M50.3194 13.6421C50.3194 13.3698 50.4767 13.2142 50.7518 13.2142H53.4644C53.7396 13.2142 53.8968 13.3698 53.8968 13.6421V22.5112C53.8968 25.0008 55.2727 26.7512 57.8673 26.7512C60.3833 26.7512 61.8772 25.0786 61.8772 22.5112V13.6421C61.8772 13.3698 62.0344 13.2142 62.3096 13.2142H65.0221C65.2973 13.2142 65.4546 13.3698 65.4546 13.6421V22.5501C65.4546 26.868 62.5455 30.1355 57.8673 30.1355C53.2285 30.1355 50.3194 26.868 50.3194 22.5501V13.6421Z" fill="#00A7D6"/>
<path d="M10.3789 13.6811C10.3789 13.4478 10.6148 13.2144 10.89 13.2144H14.1922C14.4674 13.2144 14.7032 13.4478 14.7032 13.6811V23.3282C14.7032 25.0009 16.0792 26.3235 18.0054 26.3235C19.9317 26.3235 21.347 25.0009 21.347 23.3282V13.6811C21.347 13.4478 21.5435 13.2144 21.858 13.2144H25.1602C25.4354 13.2144 25.6713 13.4478 25.6713 13.6811V23.5227C25.6713 27.1404 22.2511 30.1356 18.0054 30.1356C13.7991 30.1356 10.4182 27.1404 10.4182 23.5227L10.3789 13.6811Z" fill="white"/>
</svg>
