<svg width="362" height="346" viewBox="0 0 362 346" fill="none" xmlns="http://www.w3.org/2000/svg">
<path opacity="0.2" fill-rule="evenodd" clip-rule="evenodd" d="M4.37582 0H114.404V118.732H174.977C186.51 118.732 196.247 115.562 204.743 109.329C213.164 103.15 218.773 95.0279 221.675 84.3917L244.452 0.45317H362L329.571 119.185H357.624V346H247.133V227.268H187.023C175.108 227.268 165.234 230.479 156.794 236.671C148.372 242.85 142.763 250.973 139.861 261.61L117.085 345.547H0L32.4294 226.815H4.37582V0ZM33.3306 28.3235V198.491H70.1358L37.7064 317.223H94.8133L111.882 254.322C116.393 237.773 125.608 224.146 139.421 214.012C153.218 203.89 169.288 198.944 187.023 198.944H276.088V317.676H328.669V147.509H291.864L324.294 28.7767H266.723L249.655 91.6784C245.144 108.227 235.929 121.854 222.116 131.988C208.374 142.069 192.477 147.056 174.977 147.056H85.4492V28.3235H33.3306Z" fill="white"/>
</svg>
